<svg height="24" viewBox="0 0 24 24" width="24" xmlns="http://www.w3.org/2000/svg"><g fill="#141414" fill-rule="nonzero"><path d="m12.5 4.5c0-.27614237-.2238576-.5-.5-.5s-.5.22385763-.5.5v7.5c0 .2044523.1244755.3883067.3143047.4642383l5 2c.2563917.1025567.5473769-.0221512.6499336-.278543.1025567-.2563917-.0221512-.5473769-.278543-.6499336l-4.6856953-1.8742782z"/><path d="m12 23c6.0751322 0 11-4.9248678 11-11 0-6.07513225-4.9248678-11-11-11-6.07513225 0-11 4.92486775-11 11 0 6.0751322 4.92486775 11 11 11zm0 1c-6.627417 0-12-5.372583-12-12s5.372583-12 12-12 12 5.372583 12 12-5.372583 12-12 12z"/></g></svg>